<svg xmlns="http://www.w3.org/2000/svg" xmlns:xlink="http://www.w3.org/1999/xlink" width="500" zoomAndPan="magnify" viewBox="0 0 375 374.999991" height="500" preserveAspectRatio="xMidYMid meet" version="1.0"><defs><clipPath id="de082c737c"><path d="M 37.5 41.179688 L 330.75 41.179688 L 330.75 334.429688 L 37.5 334.429688 Z M 37.5 41.179688 " clip-rule="nonzero"/></clipPath></defs><g clip-path="url(#de082c737c)"><path fill="#000000" d="M 184.125 41.179688 C 103.144531 41.179688 37.5 106.824219 37.5 187.804688 C 37.5 268.78125 103.144531 334.429688 184.125 334.429688 C 265.105469 334.429688 330.75 268.78125 330.75 187.804688 C 330.75 106.824219 265.105469 41.179688 184.125 41.179688 Z M 94.757812 117.671875 L 273.300781 117.671875 C 273.503906 117.667969 273.691406 117.726562 273.859375 117.835938 C 274.027344 117.949219 274.148438 118.101562 274.222656 118.289062 C 274.300781 118.476562 274.316406 118.667969 274.273438 118.867188 C 274.230469 119.066406 274.132812 119.234375 273.988281 119.371094 L 213.964844 176.335938 L 213.867188 176.433594 L 195.945312 193.441406 C 195.519531 193.847656 195.074219 194.234375 194.609375 194.597656 C 194.144531 194.964844 193.664062 195.304688 193.167969 195.621094 C 192.671875 195.941406 192.160156 196.234375 191.636719 196.503906 C 191.109375 196.773438 190.574219 197.015625 190.027344 197.234375 C 189.476562 197.453125 188.917969 197.644531 188.351562 197.808594 C 187.785156 197.972656 187.214844 198.109375 186.632812 198.21875 C 186.054688 198.328125 185.46875 198.410156 184.882812 198.464844 C 184.292969 198.515625 183.707031 198.542969 183.117188 198.539062 C 182.523438 198.535156 181.9375 198.503906 181.351562 198.445312 C 180.761719 198.386719 180.179688 198.296875 179.601562 198.183594 C 179.023438 198.066406 178.449219 197.921875 177.886719 197.753906 C 177.320312 197.582031 176.765625 197.386719 176.21875 197.160156 C 175.671875 196.9375 175.140625 196.6875 174.617188 196.414062 C 174.09375 196.140625 173.585938 195.839844 173.09375 195.515625 C 172.601562 195.191406 172.125 194.847656 171.664062 194.476562 C 171.203125 194.105469 170.761719 193.714844 170.339844 193.304688 L 153.746094 177.21875 C 153.71875 177.191406 153.691406 177.164062 153.660156 177.136719 L 94.066406 119.363281 C 93.921875 119.222656 93.828125 119.054688 93.789062 118.859375 C 93.746094 118.660156 93.765625 118.46875 93.839844 118.285156 C 93.917969 118.097656 94.039062 117.949219 94.207031 117.835938 C 94.375 117.726562 94.558594 117.667969 94.757812 117.671875 Z M 86.34375 248.085938 L 86.34375 125.550781 C 86.34375 125.351562 86.398438 125.171875 86.507812 125.007812 C 86.617188 124.839844 86.761719 124.71875 86.945312 124.644531 C 87.125 124.566406 87.316406 124.546875 87.511719 124.582031 C 87.703125 124.617188 87.875 124.703125 88.015625 124.84375 L 144.648438 179.75 C 144.832031 179.929688 144.933594 180.152344 144.945312 180.410156 C 144.957031 180.667969 144.882812 180.894531 144.714844 181.09375 L 88.085938 248.722656 C 87.953125 248.882812 87.785156 248.988281 87.585938 249.042969 C 87.382812 249.097656 87.1875 249.085938 86.992188 249.015625 C 86.796875 248.945312 86.636719 248.824219 86.519531 248.652344 C 86.402344 248.484375 86.339844 248.292969 86.34375 248.085938 Z M 275.140625 257.9375 L 93.109375 257.9375 C 92.6875 257.9375 92.390625 257.746094 92.214844 257.367188 C 92.039062 256.988281 92.082031 256.636719 92.351562 256.316406 L 150.488281 186.890625 C 150.578125 186.785156 150.683594 186.703125 150.804688 186.640625 C 150.929688 186.582031 151.058594 186.546875 151.195312 186.539062 C 151.332031 186.53125 151.464844 186.554688 151.59375 186.601562 C 151.722656 186.648438 151.835938 186.722656 151.933594 186.816406 L 164.65625 199.152344 C 165.878906 200.339844 167.199219 201.402344 168.625 202.335938 C 170.050781 203.269531 171.550781 204.054688 173.128906 204.699219 C 174.703125 205.34375 176.328125 205.832031 178 206.164062 C 179.667969 206.492188 181.355469 206.660156 183.058594 206.667969 L 183.207031 206.667969 C 184.898438 206.671875 186.574219 206.511719 188.234375 206.195312 C 189.894531 205.878906 191.511719 205.40625 193.082031 204.777344 C 194.652344 204.152344 196.148438 203.382812 197.574219 202.46875 C 198.996094 201.554688 200.320312 200.515625 201.546875 199.347656 L 215.625 185.980469 C 215.726562 185.886719 215.839844 185.816406 215.964844 185.769531 C 216.09375 185.722656 216.226562 185.703125 216.363281 185.710938 C 216.496094 185.71875 216.625 185.753906 216.75 185.816406 C 216.871094 185.875 216.976562 185.957031 217.0625 186.0625 L 275.894531 256.316406 C 276.164062 256.636719 276.207031 256.988281 276.03125 257.367188 C 275.855469 257.746094 275.558594 257.933594 275.140625 257.9375 Z M 281.90625 248.085938 C 281.90625 248.292969 281.847656 248.480469 281.730469 248.652344 C 281.609375 248.820312 281.453125 248.941406 281.257812 249.011719 C 281.0625 249.082031 280.863281 249.09375 280.664062 249.039062 C 280.464844 248.984375 280.296875 248.878906 280.164062 248.71875 L 222.910156 180.347656 C 222.742188 180.148438 222.667969 179.917969 222.683594 179.65625 C 222.695312 179.398438 222.796875 179.179688 222.988281 179 L 280.246094 124.660156 C 280.386719 124.527344 280.558594 124.441406 280.75 124.40625 C 280.945312 124.375 281.128906 124.394531 281.3125 124.472656 C 281.492188 124.550781 281.636719 124.671875 281.746094 124.835938 C 281.851562 125 281.90625 125.179688 281.90625 125.375 Z M 281.90625 248.085938 " fill-opacity="1" fill-rule="nonzero"/></g></svg>