<svg xmlns="http://www.w3.org/2000/svg" xmlns:xlink="http://www.w3.org/1999/xlink" width="500" zoomAndPan="magnify" viewBox="0 0 375 374.999991" height="500" preserveAspectRatio="xMidYMid meet" version="1.0"><defs><clipPath id="a7226b767b"><path d="M 37.5 37.5 L 337.5 37.5 L 337.5 337.5 L 37.5 337.5 Z M 37.5 37.5 " clip-rule="nonzero"/></clipPath></defs><g clip-path="url(#a7226b767b)"><path fill="#1a4789" d="M 337.5 291.878906 C 337.5 317.058594 317.09375 337.464844 291.917969 337.464844 L 83.097656 337.464844 C 57.921875 337.464844 37.511719 317.058594 37.511719 291.878906 L 37.511719 83.0625 C 37.511719 57.882812 57.921875 37.476562 83.097656 37.476562 L 291.914062 37.476562 C 317.09375 37.476562 337.5 57.882812 337.5 83.0625 Z M 337.5 291.878906 " fill-opacity="1" fill-rule="nonzero"/></g><path fill="#ffffff" d="M 236.285156 210.777344 L 241.136719 173.164062 L 203.886719 173.164062 L 203.886719 149.148438 C 203.886719 138.257812 206.925781 130.835938 222.539062 130.835938 L 242.441406 130.828125 L 242.441406 97.1875 C 239.003906 96.726562 227.191406 95.703125 213.421875 95.703125 C 184.703125 95.703125 165.054688 113.234375 165.054688 145.429688 L 165.054688 173.164062 L 132.570312 173.164062 L 132.570312 210.78125 L 165.054688 210.78125 L 165.054688 307.289062 L 203.886719 307.289062 L 203.886719 210.777344 Z M 236.285156 210.777344 " fill-opacity="1" fill-rule="nonzero"/></svg>