<svg xmlns="http://www.w3.org/2000/svg" xmlns:xlink="http://www.w3.org/1999/xlink" width="500" zoomAndPan="magnify" viewBox="0 0 375 374.999991" height="500" preserveAspectRatio="xMidYMid meet" version="1.0"><defs><clipPath id="aacf7e01cf"><path d="M 38.316406 37.5 L 336.816406 37.5 L 336.816406 337.5 L 38.316406 337.5 Z M 38.316406 37.5 " clip-rule="nonzero"/></clipPath></defs><g clip-path="url(#aacf7e01cf)"><path fill="#049216" d="M 293.175781 81.214844 C 265.132812 53.140625 227.84375 37.652344 188.105469 37.652344 C 106.230469 37.652344 39.59375 104.277344 39.5625 186.179688 C 39.5625 212.355469 46.394531 237.921875 59.394531 260.4375 L 38.316406 337.40625 L 117.066406 316.746094 C 138.765625 328.585938 163.191406 334.8125 188.046875 334.828125 L 188.105469 334.828125 C 269.964844 334.828125 336.617188 268.1875 336.632812 186.300781 C 336.632812 146.605469 321.21875 109.300781 293.160156 81.214844 Z M 188.105469 309.75 L 188.0625 309.75 C 165.917969 309.75 144.175781 303.789062 125.21875 292.539062 L 120.710938 289.859375 L 73.980469 302.117188 L 86.445312 256.554688 L 83.507812 251.886719 C 71.148438 232.230469 64.625 209.511719 64.640625 186.179688 C 64.671875 118.121094 120.058594 62.730469 188.148438 62.730469 C 221.128906 62.730469 252.121094 75.597656 275.433594 98.941406 C 298.75 122.269531 311.570312 153.292969 311.554688 186.285156 C 311.523438 254.359375 256.136719 309.75 188.089844 309.75 Z M 255.824219 217.292969 C 252.121094 215.4375 233.875 206.457031 230.464844 205.226562 C 227.058594 203.980469 224.597656 203.375 222.121094 207.078125 C 219.644531 210.800781 212.53125 219.160156 210.367188 221.632812 C 208.203125 224.109375 206.039062 224.421875 202.320312 222.554688 C 198.613281 220.699219 186.652344 216.773438 172.46875 204.128906 C 161.441406 194.289062 153.984375 182.132812 151.820312 178.414062 C 149.660156 174.695312 151.601562 172.691406 153.453125 170.839844 C 155.113281 169.179688 157.15625 166.496094 159.027344 164.332031 C 160.878906 162.167969 161.5 160.613281 162.730469 158.136719 C 163.976562 155.664062 163.351562 153.5 162.417969 151.632812 C 161.484375 149.777344 154.074219 131.503906 150.976562 124.078125 C 147.96875 116.84375 144.902344 117.824219 142.632812 117.703125 C 140.46875 117.601562 137.992188 117.570312 135.519531 117.570312 C 133.042969 117.570312 129.027344 118.492188 125.617188 122.210938 C 122.207031 125.929688 112.632812 134.914062 112.632812 153.171875 C 112.632812 171.433594 125.929688 189.085938 127.796875 191.574219 C 129.648438 194.050781 153.972656 231.535156 191.203125 247.617188 C 200.050781 251.441406 206.972656 253.722656 212.367188 255.441406 C 221.261719 258.273438 229.355469 257.875 235.742188 256.910156 C 242.871094 255.84375 257.691406 247.929688 260.789062 239.257812 C 263.886719 230.585938 263.886719 223.160156 262.953125 221.605469 C 262.019531 220.046875 259.546875 219.128906 255.839844 217.261719 Z M 255.824219 217.292969 " fill-opacity="1" fill-rule="evenodd"/></g></svg>